<svg width="256" height="99" viewBox="0 0 256 99" fill="none" xmlns="http://www.w3.org/2000/svg">
<rect width="263.6" height="99" rx="15" fill="#F4F9FF"/>
<g clip-path="url(#clip0_133_167)">
<path d="M56.5221 27.4409C58.2397 27.441 59.8985 28.0667 61.1883 29.201L61.5284 29.5212L63.0698 31.0626C63.4928 31.4829 64.0452 31.7482 64.6377 31.8156L64.9358 31.8333H67.1442C68.9489 31.8332 70.6852 32.5236 71.9971 33.7628C73.3091 35.0021 74.0972 36.6963 74.1998 38.498L74.2108 38.9V41.1083C74.2108 41.7045 74.414 42.2853 74.7806 42.7491L74.9793 42.9699L76.5186 44.5113C77.7943 45.7799 78.5382 47.4873 78.5986 49.2855C78.6589 51.0836 78.0311 52.837 76.8432 54.1883L76.523 54.5283L74.9816 56.0698C74.5613 56.4928 74.296 57.0452 74.2285 57.6377L74.2108 57.9358V60.1441C74.2109 61.9488 73.5206 63.6852 72.2813 64.9971C71.0421 66.309 69.3479 67.0971 67.5461 67.1998L67.1442 67.2108H64.9358C64.3404 67.211 63.7624 67.4117 63.2951 67.7805L63.0742 67.9793L61.5328 69.5185C60.2642 70.7943 58.5568 71.5382 56.7587 71.5985C54.9605 71.6588 53.2071 71.031 51.8559 69.8431L51.5158 69.5229L49.9744 67.9815C49.5514 67.5612 48.999 67.2959 48.4065 67.2285L48.1083 67.2108H45.9C44.0953 67.2109 42.359 66.5205 41.0471 65.2813C39.7351 64.042 38.947 62.3478 38.8444 60.546L38.8333 60.1441V57.9358C38.8332 57.3404 38.6324 56.7624 38.2636 56.295L38.0648 56.0742L36.5256 54.5328C35.2498 53.2642 34.5059 51.5568 34.4456 49.7586C34.3853 47.9605 35.0131 46.2071 36.201 44.8558L36.5212 44.5158L38.0626 42.9743C38.4829 42.5513 38.7482 41.9989 38.8157 41.4064L38.8333 41.1083V38.9L38.8444 38.498C38.943 36.7655 39.6757 35.1298 40.9028 33.9027C42.1298 32.6756 43.7655 31.9429 45.4981 31.8443L45.9 31.8333H48.1083C48.7038 31.8331 49.2817 31.6324 49.7491 31.2635L49.97 31.0648L51.5114 29.5256C52.168 28.865 52.9487 28.3408 53.8086 27.9831C54.6686 27.6253 55.5907 27.4411 56.5221 27.4409ZM64.6863 43.522C64.2722 43.108 63.7106 42.8754 63.125 42.8754C62.5394 42.8754 61.9778 43.108 61.5637 43.522L54.2917 50.7918L51.4363 47.9387L51.2287 47.7554C50.7849 47.4122 50.227 47.2508 49.6685 47.304C49.1099 47.3572 48.5926 47.621 48.2215 48.0418C47.8504 48.4627 47.6535 49.009 47.6706 49.5698C47.6877 50.1306 47.9177 50.6638 48.3137 51.0613L52.7304 55.4779L52.938 55.6612C53.3629 55.9908 53.8934 56.154 54.4301 56.1203C54.9668 56.0866 55.4727 55.8581 55.853 55.4779L64.6863 46.6446L64.8696 46.437C65.1992 46.0121 65.3624 45.4816 65.3287 44.9449C65.2949 44.4082 65.0665 43.9023 64.6863 43.522Z" fill="#385986"/>
</g>
<path d="M100.832 44V32.8H105.36C108.336 32.8 109.632 34.352 109.632 36.544C109.632 38.128 108.944 39.408 107.392 39.968L109.744 44H107.376L105.248 40.272H103.232V44H100.832ZM105.28 38.192C106.592 38.192 107.168 37.536 107.168 36.544C107.168 35.536 106.592 34.88 105.28 34.88H103.232V38.192H105.28ZM114.718 44.16C112.606 44.16 110.526 42.992 110.526 39.824C110.526 36.72 112.494 35.52 114.702 35.52C116.846 35.52 118.654 36.64 118.654 39.792C118.654 40.096 118.638 40.256 118.606 40.432H112.75C112.878 41.824 113.598 42.384 114.75 42.384C115.822 42.384 116.286 41.952 116.478 41.28H118.542C118.126 43.184 116.654 44.16 114.718 44.16ZM112.75 39.056H116.446C116.414 38.096 115.918 37.296 114.638 37.296C113.55 37.296 112.91 37.904 112.75 39.056ZM119.91 44V32.8H122.246V44H119.91ZM123.91 44V35.68H126.246V44H123.91ZM125.078 34.704C124.406 34.704 123.798 34.144 123.798 33.424C123.798 32.688 124.406 32.128 125.078 32.128C125.75 32.128 126.358 32.688 126.358 33.424C126.358 34.144 125.75 34.704 125.078 34.704ZM130.182 44.16C128.822 44.16 127.51 43.504 127.51 41.792C127.51 39.952 129.014 39.552 130.454 39.344L131.862 39.136C132.63 39.024 132.87 38.896 132.87 38.432V38.32C132.87 37.44 132.294 37.2 131.574 37.2C130.822 37.2 130.15 37.44 130.15 38.304V38.464H127.958V38.08C127.958 36.448 129.046 35.52 131.638 35.52C134.15 35.52 135.158 36.416 135.158 38.224V44H132.934V42.528H132.838C132.678 42.976 132.006 44.16 130.182 44.16ZM130.982 42.496C132.086 42.496 132.87 41.76 132.87 41.104V40.176C132.742 40.368 132.342 40.432 131.974 40.496L130.806 40.704C130.086 40.816 129.846 41.168 129.846 41.6C129.846 42.112 130.182 42.496 130.982 42.496ZM141.6 44.16C140.368 44.16 139.456 43.52 139.152 42.8V44H136.816V32.8H139.152V36.88C139.456 36.16 140.368 35.52 141.6 35.52C143.344 35.52 145.248 36.784 145.248 39.84C145.248 42.896 143.344 44.16 141.6 44.16ZM141.04 42.224C142.08 42.224 143.04 41.472 143.04 39.84C143.04 38.208 142.08 37.456 141.04 37.456C140.016 37.456 139.056 38.208 139.056 39.84C139.056 41.472 140.016 42.224 141.04 42.224ZM146.52 44V32.8H148.856V44H146.52ZM154.312 44.16C152.2 44.16 150.12 42.992 150.12 39.824C150.12 36.72 152.088 35.52 154.296 35.52C156.44 35.52 158.248 36.64 158.248 39.792C158.248 40.096 158.232 40.256 158.2 40.432H152.344C152.472 41.824 153.192 42.384 154.344 42.384C155.416 42.384 155.88 41.952 156.072 41.28H158.135C157.72 43.184 156.248 44.16 154.312 44.16ZM152.344 39.056H156.04C156.008 38.096 155.512 37.296 154.232 37.296C153.144 37.296 152.504 37.904 152.344 39.056Z" fill="black"/>
<path d="M106.617 66V61.983H101.82V66H100.754V56.9H101.82V61.086H106.617V56.9H107.696V66H106.617ZM111.094 66.13C109.807 66.13 108.871 65.545 108.871 64.271C108.871 63.075 109.69 62.49 111.003 62.334L112.732 62.139C113.434 62.061 113.642 61.918 113.642 61.697V61.424C113.642 60.28 113.07 59.916 111.952 59.916C110.834 59.916 110.262 60.28 110.262 61.177V61.333H109.261V61.086C109.261 59.734 110.223 59.11 111.991 59.11C113.824 59.11 114.682 59.799 114.682 61.424V66H113.707V64.83H113.655C113.499 65.168 112.758 66.13 111.094 66.13ZM111.341 65.298C112.914 65.298 113.642 64.258 113.642 63.582V62.607C113.59 62.75 113.369 62.867 112.667 62.958L111.25 63.127C110.249 63.244 109.911 63.621 109.911 64.219C109.911 64.999 110.496 65.298 111.341 65.298ZM118.584 66.13C117.037 66.13 115.866 65.493 115.802 64.076H116.738C116.868 64.999 117.713 65.311 118.597 65.311C119.52 65.311 120.261 64.973 120.261 64.128C120.261 63.465 119.806 63.244 119.078 63.075L117.804 62.776C116.608 62.49 116.01 61.879 116.01 60.956C116.01 59.76 117.024 59.11 118.558 59.11C120.079 59.11 121.08 59.76 121.158 61.112H120.274C120.131 60.228 119.494 59.929 118.558 59.929C117.57 59.929 117.024 60.254 117.024 60.956C117.024 61.476 117.336 61.801 118.155 61.983L119.416 62.282C120.534 62.542 121.327 62.971 121.327 64.115C121.327 65.597 119.975 66.13 118.584 66.13ZM124.83 66.13C123.283 66.13 122.113 65.493 122.048 64.076H122.984C123.114 64.999 123.959 65.311 124.843 65.311C125.766 65.311 126.507 64.973 126.507 64.128C126.507 63.465 126.052 63.244 125.324 63.075L124.05 62.776C122.854 62.49 122.256 61.879 122.256 60.956C122.256 59.76 123.27 59.11 124.804 59.11C126.325 59.11 127.326 59.76 127.404 61.112H126.52C126.377 60.228 125.74 59.929 124.804 59.929C123.816 59.929 123.27 60.254 123.27 60.956C123.27 61.476 123.582 61.801 124.401 61.983L125.662 62.282C126.78 62.542 127.573 62.971 127.573 64.115C127.573 65.597 126.221 66.13 124.83 66.13ZM128.684 66V56.9H129.724V66H128.684ZM134.109 66.13C132.25 66.13 130.898 65.012 130.898 62.633C130.898 60.176 132.328 59.11 134.057 59.11C135.799 59.11 137.073 60.202 137.073 62.464C137.073 62.685 137.06 62.815 137.034 62.945H131.899C131.977 64.531 132.757 65.298 134.122 65.298C134.954 65.298 135.708 65.025 136.033 64.102H136.982C136.54 65.597 135.396 66.13 134.109 66.13ZM131.899 62.152H136.072C136.059 60.735 135.292 59.929 134.044 59.929C132.861 59.929 132.003 60.644 131.899 62.152ZM141.239 66V56.9H147.024V57.849H142.305V61.008H146.179V61.905H142.305V66H141.239ZM148.171 66V59.24H149.211V60.748H149.237C149.419 60.046 150.056 59.162 151.369 59.162C151.538 59.162 151.72 59.175 151.876 59.227V60.111C151.707 60.085 151.551 60.072 151.382 60.072C150.017 60.072 149.211 60.995 149.211 62.438V66H148.171ZM155.615 66.13C153.756 66.13 152.404 65.012 152.404 62.633C152.404 60.176 153.834 59.11 155.563 59.11C157.305 59.11 158.579 60.202 158.579 62.464C158.579 62.685 158.566 62.815 158.54 62.945H153.405C153.483 64.531 154.263 65.298 155.628 65.298C156.46 65.298 157.214 65.025 157.539 64.102H158.488C158.046 65.597 156.902 66.13 155.615 66.13ZM153.405 62.152H157.578C157.565 60.735 156.798 59.929 155.55 59.929C154.367 59.929 153.509 60.644 153.405 62.152ZM162.699 66.13C160.84 66.13 159.488 65.012 159.488 62.633C159.488 60.176 160.918 59.11 162.647 59.11C164.389 59.11 165.663 60.202 165.663 62.464C165.663 62.685 165.65 62.815 165.624 62.945H160.489C160.567 64.531 161.347 65.298 162.712 65.298C163.544 65.298 164.298 65.025 164.623 64.102H165.572C165.13 65.597 163.986 66.13 162.699 66.13ZM160.489 62.152H164.662C164.649 60.735 163.882 59.929 162.634 59.929C161.451 59.929 160.593 60.644 160.489 62.152Z" fill="#7E7E7E"/>
<defs>
<clipPath id="clip0_133_167">
<rect width="53" height="53" fill="white" transform="translate(30 23)"/>
</clipPath>
</defs>
</svg>
