<svg width="300" height="99" viewBox="0 0 300 99" fill="none" xmlns="http://www.w3.org/2000/svg">
<g clip-path="url(#clip0_133_159)">
<rect width="300" height="99" rx="15" fill="#F4F9FF"/>
<g clip-path="url(#clip1_133_159)">
<path d="M82.416 44.0443C82.7633 43.6109 83.2671 43.3313 83.8187 43.266C84.3703 43.2006 84.9254 43.3547 85.3644 43.695L85.5634 43.8707L94.0299 52.3372C94.3589 52.6665 94.5702 53.095 94.631 53.5564L94.6501 53.8337V64.4168C94.65 64.9353 94.4597 65.4356 94.1152 65.8231C93.7707 66.2105 93.296 66.458 92.7811 66.5186L92.5335 66.5335H58.6208L58.388 66.5144L58.1552 66.4721L57.9287 66.4001L57.7065 66.3027L57.4948 66.1779L57.2958 66.0297L57.1688 65.9133L57.0164 65.7397L56.881 65.5513L56.7667 65.3481L56.7328 65.2741L56.6481 65.056L56.591 64.8317L56.5592 64.6031L56.5508 64.3703L56.5698 64.1374L56.61 63.9152C56.6312 63.8305 56.6566 63.7522 56.6841 63.6781L56.7815 63.4559L56.9064 63.2442L65.3729 50.5444C65.6335 50.1521 66.0175 49.8579 66.4641 49.7084C66.9107 49.5589 67.3945 49.5626 67.8388 49.719L68.0801 49.8248L75.0162 53.2918L82.4139 44.0443H82.416Z" fill="#385986"/>
<path d="M82.4414 31.3128C82.7926 30.8909 83.294 30.6219 83.8398 30.5627C84.3856 30.5034 84.933 30.6586 85.3666 30.9953L85.5634 31.171L94.03 39.6375C94.4096 40.0184 94.63 40.5295 94.6464 41.067C94.6628 41.6046 94.474 42.1282 94.1183 42.5315C93.7627 42.9349 93.2668 43.1877 92.7315 43.2387C92.1961 43.2897 91.6614 43.135 91.236 42.8061L91.037 42.6304L84.2088 35.8043L75.1094 46.7219C74.833 47.0534 74.4619 47.2925 74.0457 47.4072C73.6296 47.5218 73.1883 47.5065 72.7811 47.3632L72.5377 47.2595L65.6502 43.8178L60.3608 50.8704C60.0515 51.2828 59.6025 51.5682 59.0978 51.673C58.5932 51.7778 58.0676 51.6949 57.6197 51.4398L57.3975 51.2938C56.9851 50.9846 56.6997 50.5355 56.5949 50.0308C56.4901 49.5262 56.573 49.0006 56.8281 48.5527L56.9741 48.3305L63.324 39.864C63.5955 39.5024 63.9756 39.2373 64.4087 39.1074C64.8417 38.9775 65.305 38.9897 65.7306 39.1422L65.9635 39.2417L72.9293 42.7235L82.4414 31.3128Z" fill="#385986"/>
</g>
<path d="M123.264 44.1005L123.536 41.3645H121.456L121.184 44.1005H119.776L120.048 41.3645H118.672V39.9245H120.192L120.48 37.0765H119.104V35.6365H120.624L120.896 32.9005H122.304L122.032 35.6365H124.112L124.384 32.9005H125.792L125.52 35.6365H126.896V37.0765H125.376L125.088 39.9245H126.464V41.3645H124.944L124.672 44.1005H123.264ZM121.6 39.9245H123.68L123.968 37.0765H121.888L121.6 39.9245ZM130.587 35.7485C129.963 36.4045 129.035 36.5805 128.155 36.5805V34.6605C129.403 34.5165 130.219 34.0365 130.587 32.9005H132.923V44.1005H130.587V35.7485Z" fill="black"/>
<path d="M121.237 66.1005V57.9625H118.364V57.0005H125.176V57.9625H122.303V66.1005H121.237ZM127.925 66.2305C126.248 66.2305 124.675 65.1255 124.675 62.7205C124.675 60.3155 126.248 59.2105 127.925 59.2105C129.602 59.2105 131.175 60.3155 131.175 62.7205C131.175 65.1255 129.602 66.2305 127.925 66.2305ZM127.925 65.3465C129.095 65.3465 130.174 64.5405 130.174 62.7205C130.174 60.9005 129.095 60.0815 127.925 60.0815C126.742 60.0815 125.663 60.9005 125.663 62.7205C125.663 64.5405 126.742 65.3465 127.925 65.3465ZM132.351 68.5705V59.3405H133.391V60.4585C133.859 59.6395 134.782 59.2105 135.783 59.2105C137.343 59.2105 138.825 60.2765 138.825 62.7205C138.825 65.1515 137.343 66.2305 135.783 66.2305C134.782 66.2305 133.859 65.7885 133.391 64.9695V68.5705H132.351ZM135.588 65.3465C136.745 65.3465 137.837 64.5145 137.837 62.7205C137.837 60.9135 136.745 60.0815 135.588 60.0815C134.444 60.0815 133.339 60.9135 133.339 62.7205C133.339 64.5145 134.444 65.3465 135.588 65.3465ZM142.989 66.1005V57.0005H144.055V66.1005H142.989ZM150.338 62.1355C150.338 60.8485 149.792 60.0945 148.596 60.0945C147.4 60.0945 146.607 60.8485 146.607 62.1355V66.1005H145.567V59.3405H146.607V60.6665H146.633C146.75 60.2115 147.4 59.2105 148.96 59.2105C150.299 59.2105 151.377 59.9385 151.377 61.9275V66.1005H150.338V62.1355ZM159.385 66.2305C157.24 66.2305 155.888 64.9565 155.888 62.6555V57.0005H156.967V62.5905C156.967 64.3325 157.864 65.2815 159.385 65.2815C160.906 65.2815 161.803 64.3325 161.803 62.5905V57.0005H162.882V62.6555C162.882 64.9565 161.517 66.2305 159.385 66.2305ZM163.545 66.1005L167.016 57.0005H168.342L171.813 66.1005H170.682L169.837 63.8255H165.521L164.676 66.1005H163.545ZM165.833 62.9935H169.525L167.718 58.1575H167.64L165.833 62.9935ZM172.861 66.1005V57.0005H178.646V57.9495H173.927V60.9915H178.256V61.8625H173.927V65.1515H178.776V66.1005H172.861ZM182.942 66.1005V57.0005H184.229L187.583 64.7095L190.924 57.0005H192.224V66.1005H191.145V58.9765H191.106L188.025 66.1005H187.141L184.047 58.9765H184.008V66.1005H182.942ZM195.618 66.2305C194.331 66.2305 193.395 65.6455 193.395 64.3715C193.395 63.1755 194.214 62.5905 195.527 62.4345L197.256 62.2395C197.958 62.1615 198.166 62.0185 198.166 61.7975V61.5245C198.166 60.3805 197.594 60.0165 196.476 60.0165C195.358 60.0165 194.786 60.3805 194.786 61.2775V61.4335H193.785V61.1865C193.785 59.8345 194.747 59.2105 196.515 59.2105C198.348 59.2105 199.206 59.8995 199.206 61.5245V66.1005H198.231V64.9305H198.179C198.023 65.2685 197.282 66.2305 195.618 66.2305ZM195.865 65.3985C197.438 65.3985 198.166 64.3585 198.166 63.6825V62.7075C198.114 62.8505 197.893 62.9675 197.191 63.0585L195.774 63.2275C194.773 63.3445 194.435 63.7215 194.435 64.3195C194.435 65.0995 195.02 65.3985 195.865 65.3985ZM200.778 66.1005V59.3405H201.818V60.8485H201.844C202.026 60.1465 202.663 59.2625 203.976 59.2625C204.145 59.2625 204.327 59.2755 204.483 59.3275V60.2115C204.314 60.1855 204.158 60.1725 203.989 60.1725C202.624 60.1725 201.818 61.0955 201.818 62.5385V66.1005H200.778ZM205.526 66.1005V57.0005H206.566V62.9935L210.063 59.3405H211.259L208.386 62.2785L211.636 66.1005H210.44L207.736 62.9415L206.566 64.1245V66.1005H205.526ZM214.976 66.2305C213.117 66.2305 211.765 65.1125 211.765 62.7335C211.765 60.2765 213.195 59.2105 214.924 59.2105C216.666 59.2105 217.94 60.3025 217.94 62.5645C217.94 62.7855 217.927 62.9155 217.901 63.0455H212.766C212.844 64.6315 213.624 65.3985 214.989 65.3985C215.821 65.3985 216.575 65.1255 216.9 64.2025H217.849C217.407 65.6975 216.263 66.2305 214.976 66.2305ZM212.766 62.2525H216.939C216.926 60.8355 216.159 60.0295 214.911 60.0295C213.728 60.0295 212.87 60.7445 212.766 62.2525ZM221.311 66.1915C220.297 66.1915 219.582 65.7625 219.582 64.5145V60.1855H218.49V59.3405H219.582V57.6505H220.622V59.3405H221.961V60.1855H220.622V64.3195C220.622 65.0475 220.869 65.3335 221.597 65.3335C221.766 65.3335 221.883 65.3335 222.065 65.3075V66.1005C221.831 66.1525 221.584 66.1915 221.311 66.1915Z" fill="#7E7E7E"/>
</g>
<defs>
<clipPath id="clip0_133_159">
<rect width="300" height="99" fill="white"/>
</clipPath>
<clipPath id="clip1_133_159">
<rect width="50.7991" height="50.7991" fill="white" transform="translate(50.2009 24.2009)"/>
</clipPath>
</defs>
</svg>
