<svg width="300" height="99" viewBox="0 0 300 99" fill="none" xmlns="http://www.w3.org/2000/svg">
<g clip-path="url(#clip0_133_151)">
<rect width="300" height="99" rx="15" fill="#F4F9FF"/>
<path d="M81.017 34.1572C83.7067 35.7101 85.9441 37.9387 87.5079 40.6221C89.0716 43.3056 89.9074 46.3509 89.9325 49.4566C89.9575 52.5624 89.1711 55.6208 87.6509 58.3292C86.1307 61.0375 83.9296 63.3019 81.2653 64.8982C78.6011 66.4944 75.5661 67.3671 72.4609 67.43C69.3557 67.4928 66.288 66.7436 63.5613 65.2565C60.8347 63.7693 58.5437 61.5959 56.9152 58.9512C55.2867 56.3066 54.3771 53.2825 54.2765 50.1783L54.2676 49.6005L54.2765 49.0227C54.3764 45.9429 55.2725 42.9416 56.8777 40.3113C58.4828 37.681 60.7421 35.5115 63.4353 34.0143C66.1285 32.5171 69.1637 31.7433 72.245 31.7683C75.3263 31.7934 78.3485 32.6164 81.017 34.1572ZM77.4504 51.3838H66.7506C66.2777 51.3838 65.8241 51.5717 65.4897 51.9061C65.1552 52.2405 64.9673 52.6941 64.9673 53.1671V53.2562C64.9674 55.0751 65.6666 56.8244 66.9203 58.1421C68.174 59.4599 69.8862 60.2453 71.7029 60.3359L72.1077 60.3448C73.93 60.3317 75.6791 59.626 77.0004 58.371C78.3216 57.1159 79.1162 55.4054 79.223 53.5861L79.2337 53.2188C79.2406 52.9803 79.1996 52.7428 79.1131 52.5205C79.0266 52.2981 78.8963 52.0954 78.73 51.9242C78.5637 51.7531 78.3648 51.6171 78.145 51.5243C77.9252 51.4315 77.689 51.3837 77.4504 51.3838ZM66.7685 42.4673L66.542 42.4798C66.0907 42.5335 65.6768 42.7575 65.3851 43.106C65.0934 43.4546 64.9458 43.9014 64.9724 44.3551C64.999 44.8089 65.1979 45.2353 65.5284 45.5473C65.8589 45.8594 66.2961 46.0334 66.7506 46.0339L66.9771 46.0214C67.4285 45.9677 67.8423 45.7437 68.134 45.3952C68.4257 45.0466 68.5734 44.5998 68.5467 44.1461C68.5201 43.6923 68.3212 43.2659 67.9907 42.9539C67.6602 42.6419 67.223 42.4678 66.7685 42.4673ZM77.4682 42.4673L77.2418 42.4798C76.7904 42.5335 76.3766 42.7575 76.0849 43.106C75.7931 43.4546 75.6455 43.9014 75.6722 44.3551C75.6988 44.8089 75.8977 45.2353 76.2282 45.5473C76.5587 45.8594 76.9959 46.0334 77.4504 46.0339L77.6769 46.0214C78.1282 45.9677 78.542 45.7437 78.8338 45.3952C79.1255 45.0466 79.2731 44.5998 79.2465 44.1461C79.2199 43.6923 79.021 43.2659 78.6905 42.9539C78.3599 42.6419 77.9228 42.4678 77.4682 42.4673Z" fill="#385986"/>
<path d="M113.524 35.7485C112.9 36.4045 111.972 36.5805 111.092 36.5805V34.6605C112.34 34.5165 113.156 34.0365 113.524 32.9005H115.86V44.1005H113.524V35.7485ZM119.016 44.2605C118.248 44.2605 117.608 43.6525 117.608 42.8685C117.608 42.1005 118.248 41.4765 119.016 41.4765C119.8 41.4765 120.44 42.1005 120.44 42.8685C120.44 43.6525 119.8 44.2605 119.016 44.2605ZM125.847 44.2605C123.175 44.2605 121.671 42.7085 121.703 40.5165H123.815C123.863 41.8765 124.935 42.3725 125.783 42.3725C126.599 42.3725 127.799 41.9405 127.799 40.2445C127.799 38.5165 126.599 38.1485 125.815 38.1485C125.047 38.1485 124.311 38.5165 124.023 39.1565H121.863L122.807 32.9005H129.063V34.8365H124.423L124.055 37.2365C124.103 37.1565 124.807 36.3565 126.423 36.3565C128.535 36.3565 130.119 37.8285 130.119 40.2445C130.119 42.8205 128.407 44.2605 125.847 44.2605ZM135.066 44.1005V32.9005H138.09L141.018 40.8365L143.962 32.9005H146.986V44.1005H144.586V37.0445H144.506L141.914 44.1005H140.122L137.546 37.0445H137.466V44.1005H135.066ZM148.645 44.1005V35.7805H150.981V44.1005H148.645ZM149.812 34.8045C149.141 34.8045 148.533 34.2445 148.533 33.5245C148.533 32.7885 149.141 32.2285 149.812 32.2285C150.485 32.2285 151.093 32.7885 151.093 33.5245C151.093 34.2445 150.485 34.8045 149.812 34.8045ZM152.645 44.1005V32.9005H154.981V44.1005H152.645ZM156.645 44.1005V32.9005H158.981V44.1005H156.645ZM160.645 44.1005V35.7805H162.981V44.1005H160.645ZM161.812 34.8045C161.141 34.8045 160.533 34.2445 160.533 33.5245C160.533 32.7885 161.141 32.2285 161.812 32.2285C162.485 32.2285 163.093 32.7885 163.093 33.5245C163.093 34.2445 162.485 34.8045 161.812 34.8045ZM168.421 44.2605C166.325 44.2605 164.245 42.9645 164.245 39.9405C164.245 36.9165 166.325 35.6205 168.421 35.6205C170.517 35.6205 172.597 36.9165 172.597 39.9405C172.597 42.9645 170.517 44.2605 168.421 44.2605ZM168.421 42.3245C169.541 42.3245 170.405 41.5885 170.405 39.9405C170.405 38.2925 169.541 37.5565 168.421 37.5565C167.301 37.5565 166.437 38.2925 166.437 39.9405C166.437 41.5885 167.301 42.3245 168.421 42.3245ZM179.479 39.3805C179.479 38.1165 178.919 37.5565 177.943 37.5565C176.967 37.5565 176.199 38.1165 176.199 39.3805V44.1005H173.863V35.7805H176.199V37.5245H176.295C176.439 36.7405 177.239 35.6205 178.951 35.6205C180.567 35.6205 181.815 36.6605 181.815 38.8205V44.1005H179.479V39.3805ZM190.088 43.5245V40.5965H187.16V38.5805H190.088V35.6685H192.232V38.5805H195.176V40.5965H192.232V43.5245H190.088Z" fill="black"/>
<path d="M115.167 66.2305C112.749 66.2305 111.059 64.6185 111.059 61.5505C111.059 58.4825 112.749 56.8835 115.167 56.8835C117.013 56.8835 118.417 57.8065 118.716 59.6525H117.663C117.351 58.4565 116.428 57.8195 115.154 57.8195C113.321 57.8195 112.138 59.1325 112.138 61.5505C112.138 63.9555 113.321 65.2945 115.154 65.2945C116.428 65.2945 117.351 64.6575 117.663 63.4355H118.716C118.417 65.3075 117.013 66.2305 115.167 66.2305ZM120.901 63.3055C120.901 64.5925 121.447 65.3465 122.643 65.3465C123.839 65.3465 124.632 64.5925 124.632 63.3055V59.3405H125.672V66.1005H124.632V64.7745H124.606C124.489 65.2295 123.839 66.2305 122.279 66.2305C120.94 66.2305 119.861 65.5025 119.861 63.5135V59.3405H120.901V63.3055ZM129.579 66.2305C128.032 66.2305 126.862 65.5935 126.797 64.1765H127.733C127.863 65.0995 128.708 65.4115 129.592 65.4115C130.515 65.4115 131.256 65.0735 131.256 64.2285C131.256 63.5655 130.801 63.3445 130.073 63.1755L128.799 62.8765C127.603 62.5905 127.005 61.9795 127.005 61.0565C127.005 59.8605 128.019 59.2105 129.553 59.2105C131.074 59.2105 132.075 59.8605 132.153 61.2125H131.269C131.126 60.3285 130.489 60.0295 129.553 60.0295C128.565 60.0295 128.019 60.3545 128.019 61.0565C128.019 61.5765 128.331 61.9015 129.15 62.0835L130.411 62.3825C131.529 62.6425 132.322 63.0715 132.322 64.2155C132.322 65.6975 130.97 66.2305 129.579 66.2305ZM135.799 66.1915C134.785 66.1915 134.07 65.7625 134.07 64.5145V60.1855H132.978V59.3405H134.07V57.6505H135.11V59.3405H136.449V60.1855H135.11V64.3195C135.11 65.0475 135.357 65.3335 136.085 65.3335C136.254 65.3335 136.371 65.3335 136.553 65.3075V66.1005C136.319 66.1525 136.072 66.1915 135.799 66.1915ZM140.522 66.2305C138.845 66.2305 137.272 65.1255 137.272 62.7205C137.272 60.3155 138.845 59.2105 140.522 59.2105C142.199 59.2105 143.772 60.3155 143.772 62.7205C143.772 65.1255 142.199 66.2305 140.522 66.2305ZM140.522 65.3465C141.692 65.3465 142.771 64.5405 142.771 62.7205C142.771 60.9005 141.692 60.0815 140.522 60.0815C139.339 60.0815 138.26 60.9005 138.26 62.7205C138.26 64.5405 139.339 65.3465 140.522 65.3465ZM153.852 62.1355C153.852 60.8485 153.345 60.0945 152.227 60.0945C151.148 60.0945 150.433 60.8485 150.433 62.1355V66.1005H149.393V62.1355C149.393 60.8485 148.899 60.0945 147.781 60.0945C146.702 60.0945 145.987 60.8485 145.987 62.1355V66.1005H144.947V59.3405H145.987V60.6665H146.013C146.117 60.2115 146.741 59.2105 148.158 59.2105C149.12 59.2105 149.939 59.6395 150.277 60.7315C150.446 60.2245 151.083 59.2105 152.565 59.2105C153.865 59.2105 154.892 59.9385 154.892 61.9275V66.1005H153.852V62.1355ZM159.272 66.2305C157.413 66.2305 156.061 65.1125 156.061 62.7335C156.061 60.2765 157.491 59.2105 159.22 59.2105C160.962 59.2105 162.236 60.3025 162.236 62.5645C162.236 62.7855 162.223 62.9155 162.197 63.0455H157.062C157.14 64.6315 157.92 65.3985 159.285 65.3985C160.117 65.3985 160.871 65.1255 161.196 64.2025H162.145C161.703 65.6975 160.559 66.2305 159.272 66.2305ZM157.062 62.2525H161.235C161.222 60.8355 160.455 60.0295 159.207 60.0295C158.024 60.0295 157.166 60.7445 157.062 62.2525ZM163.406 66.1005V59.3405H164.446V60.8485H164.472C164.654 60.1465 165.291 59.2625 166.604 59.2625C166.773 59.2625 166.955 59.2755 167.111 59.3275V60.2115C166.942 60.1855 166.786 60.1725 166.617 60.1725C165.252 60.1725 164.446 61.0955 164.446 62.5385V66.1005H163.406ZM170.381 66.2305C168.834 66.2305 167.664 65.5935 167.599 64.1765H168.535C168.665 65.0995 169.51 65.4115 170.394 65.4115C171.317 65.4115 172.058 65.0735 172.058 64.2285C172.058 63.5655 171.603 63.3445 170.875 63.1755L169.601 62.8765C168.405 62.5905 167.807 61.9795 167.807 61.0565C167.807 59.8605 168.821 59.2105 170.355 59.2105C171.876 59.2105 172.877 59.8605 172.955 61.2125H172.071C171.928 60.3285 171.291 60.0295 170.355 60.0295C169.367 60.0295 168.821 60.3545 168.821 61.0565C168.821 61.5765 169.133 61.9015 169.952 62.0835L171.213 62.3825C172.331 62.6425 173.124 63.0715 173.124 64.2155C173.124 65.6975 171.772 66.2305 170.381 66.2305ZM181.158 66.2305C178.662 66.2305 177.037 64.6185 177.037 61.5635C177.037 58.4825 178.714 56.8835 181.145 56.8835C182.926 56.8835 184.252 57.7155 184.616 59.3405H183.55C183.212 58.3395 182.354 57.8195 181.145 57.8195C179.247 57.8195 178.103 59.1195 178.103 61.5375C178.103 63.9685 179.273 65.2945 181.171 65.2945C182.77 65.2945 183.875 64.3585 183.875 62.3175H181.587V61.4335H184.928V62.0705C184.928 64.8005 183.524 66.2305 181.158 66.2305ZM186.296 66.1005V57.0005H187.336V66.1005H186.296ZM191.76 66.2305C190.083 66.2305 188.51 65.1255 188.51 62.7205C188.51 60.3155 190.083 59.2105 191.76 59.2105C193.437 59.2105 195.01 60.3155 195.01 62.7205C195.01 65.1255 193.437 66.2305 191.76 66.2305ZM191.76 65.3465C192.93 65.3465 194.009 64.5405 194.009 62.7205C194.009 60.9005 192.93 60.0815 191.76 60.0815C190.577 60.0815 189.498 60.9005 189.498 62.7205C189.498 64.5405 190.577 65.3465 191.76 65.3465ZM199.618 66.2305C198.617 66.2305 197.694 65.7885 197.226 64.9695V66.1005H196.186V57.0005H197.226V60.4585C197.694 59.6395 198.617 59.2105 199.618 59.2105C201.178 59.2105 202.66 60.2765 202.66 62.7205C202.66 65.1515 201.178 66.2305 199.618 66.2305ZM199.423 65.3465C200.58 65.3465 201.672 64.5145 201.672 62.7205C201.672 60.9135 200.58 60.0815 199.423 60.0815C198.279 60.0815 197.174 60.9135 197.174 62.7205C197.174 64.5145 198.279 65.3465 199.423 65.3465ZM205.726 66.2305C204.439 66.2305 203.503 65.6455 203.503 64.3715C203.503 63.1755 204.322 62.5905 205.635 62.4345L207.364 62.2395C208.066 62.1615 208.274 62.0185 208.274 61.7975V61.5245C208.274 60.3805 207.702 60.0165 206.584 60.0165C205.466 60.0165 204.894 60.3805 204.894 61.2775V61.4335H203.893V61.1865C203.893 59.8345 204.855 59.2105 206.623 59.2105C208.456 59.2105 209.314 59.8995 209.314 61.5245V66.1005H208.339V64.9305H208.287C208.131 65.2685 207.39 66.2305 205.726 66.2305ZM205.973 65.3985C207.546 65.3985 208.274 64.3585 208.274 63.6825V62.7075C208.222 62.8505 208.001 62.9675 207.299 63.0585L205.882 63.2275C204.881 63.3445 204.543 63.7215 204.543 64.3195C204.543 65.0995 205.128 65.3985 205.973 65.3985ZM210.823 66.1005V57.0005H211.863V66.1005H210.823ZM213.362 66.1005V57.0005H214.402V66.1005H213.362ZM216.072 67.6995C217.086 67.8425 217.593 67.4135 217.892 66.6465C218.035 66.2825 218.048 66.0485 217.931 65.7755L215.383 59.3405H216.449L218.568 64.8785L220.674 59.3405H221.753L218.841 66.6465C218.204 68.2195 217.398 68.7655 216.072 68.5965V67.6995Z" fill="#7E7E7E"/>
</g>
<defs>
<clipPath id="clip0_133_151">
<rect width="300" height="99" fill="white"/>
</clipPath>
</defs>
</svg>
