<svg width="300" height="99" viewBox="0 0 300 99" fill="none" xmlns="http://www.w3.org/2000/svg">
<g clip-path="url(#clip0_133_143)">
<rect width="300" height="99" rx="15" fill="#F4F9FF"/>
<path d="M79.9006 41.2903L68.5232 42.9399L68.3217 42.9809C68.0167 43.0619 67.7386 43.2224 67.5158 43.446C67.2931 43.6696 67.1337 43.9483 67.0539 44.2537C66.9741 44.559 66.9768 44.8801 67.0617 45.1841C67.1466 45.4881 67.3106 45.7641 67.5371 45.984L75.7794 54.007L73.8357 65.3398L73.8125 65.536C73.7938 65.8515 73.8593 66.1663 74.0023 66.4482C74.1453 66.73 74.3606 66.9688 74.6263 67.1401C74.8919 67.3114 75.1982 67.409 75.514 67.4229C75.8297 67.4369 76.1435 67.3666 76.4232 67.2194L86.5987 61.8695L96.751 67.2194L96.9293 67.3015C97.2237 67.4174 97.5436 67.4529 97.8562 67.4045C98.1688 67.356 98.4629 67.2252 98.7083 67.0255C98.9537 66.8259 99.1416 66.5645 99.2527 66.2683C99.3637 65.9721 99.394 65.6516 99.3403 65.3398L97.3948 54.007L105.641 45.9822L105.78 45.8306C105.979 45.5859 106.109 45.2928 106.157 44.9814C106.206 44.6699 106.171 44.3511 106.056 44.0575C105.942 43.7639 105.751 43.5059 105.504 43.3099C105.257 43.1139 104.963 42.9868 104.651 42.9417L93.2736 41.2903L88.1876 30.9829C88.0404 30.6842 87.8126 30.4328 87.5299 30.2569C87.2472 30.0811 86.9209 29.9879 86.588 29.9879C86.2551 29.9879 85.9288 30.0811 85.6461 30.2569C85.3634 30.4328 85.1355 30.6842 84.9884 30.9829L79.9006 41.2903Z" fill="#385986"/>
<path d="M130.36 44.1005V41.4765H125.512V39.6045L130.36 32.9005H132.696V39.6045H133.976V41.4765H132.696V44.1005H130.36ZM127.544 39.6045H130.36V35.7165L127.544 39.6045ZM136.484 44.2605C135.716 44.2605 135.076 43.6525 135.076 42.8685C135.076 42.1005 135.716 41.4765 136.484 41.4765C137.268 41.4765 137.908 42.1005 137.908 42.8685C137.908 43.6525 137.268 44.2605 136.484 44.2605ZM143.108 44.2605C140.788 44.2605 139.012 43.0445 139.012 40.8845C139.012 39.5405 139.652 38.5165 140.98 37.9565C139.892 37.3645 139.604 36.4365 139.604 35.6205C139.604 34.0205 140.868 32.7565 143.108 32.7565C145.348 32.7565 146.612 34.0205 146.612 35.6205C146.612 36.4365 146.324 37.3645 145.236 37.9565C146.564 38.5165 147.204 39.5405 147.204 40.8845C147.204 43.0445 145.428 44.2605 143.108 44.2605ZM143.108 42.3085C144.372 42.3085 144.98 41.5085 144.98 40.6125C144.98 39.7325 144.34 38.9165 143.108 38.9165C141.876 38.9165 141.236 39.7325 141.236 40.6125C141.236 41.5085 141.844 42.3085 143.108 42.3085ZM143.108 37.1565C144.084 37.1565 144.564 36.5325 144.564 35.8285C144.564 35.0765 144.052 34.5485 143.108 34.5485C142.164 34.5485 141.652 35.0765 141.652 35.8285C141.652 36.5325 142.132 37.1565 143.108 37.1565Z" fill="black"/>
<path d="M129.043 66.2305C126.755 66.2305 125.559 65.0735 125.559 63.4485H126.638C126.703 64.4885 127.418 65.3075 129.056 65.3075C130.551 65.3075 131.292 64.6185 131.292 63.5915C131.292 62.5775 130.564 62.1615 129.498 61.9535L128.289 61.7065C126.703 61.3945 125.819 60.6275 125.819 59.3145C125.819 57.8325 126.937 56.8835 128.978 56.8835C130.993 56.8835 132.137 57.8325 132.137 59.3145H131.071C131.032 58.4435 130.356 57.7935 128.965 57.7935C127.522 57.7935 126.937 58.4695 126.937 59.3145C126.937 60.0555 127.392 60.6015 128.588 60.8355L129.758 61.0695C131.422 61.4075 132.41 62.0965 132.41 63.5785C132.41 65.2685 131.123 66.2305 129.043 66.2305ZM136.613 66.2305C134.754 66.2305 133.402 65.1125 133.402 62.7335C133.402 60.2765 134.832 59.2105 136.561 59.2105C138.303 59.2105 139.577 60.3025 139.577 62.5645C139.577 62.7855 139.564 62.9155 139.538 63.0455H134.403C134.481 64.6315 135.261 65.3985 136.626 65.3985C137.458 65.3985 138.212 65.1255 138.537 64.2025H139.486C139.044 65.6975 137.9 66.2305 136.613 66.2305ZM134.403 62.2525H138.576C138.563 60.8355 137.796 60.0295 136.548 60.0295C135.365 60.0295 134.507 60.7445 134.403 62.2525ZM140.747 66.1005V59.3405H141.787V60.8485H141.813C141.995 60.1465 142.632 59.2625 143.945 59.2625C144.114 59.2625 144.296 59.2755 144.452 59.3275V60.2115C144.283 60.1855 144.127 60.1725 143.958 60.1725C142.593 60.1725 141.787 61.0955 141.787 62.5385V66.1005H140.747ZM147.653 66.1005L145.04 59.3405H146.093L148.29 65.1125H148.329L150.513 59.3405H151.579L148.953 66.1005H147.653ZM152.554 66.1005V59.3405H153.594V66.1005H152.554ZM153.074 58.0015C152.723 58.0015 152.411 57.7025 152.411 57.3385C152.411 56.9745 152.723 56.6885 153.074 56.6885C153.425 56.6885 153.724 56.9745 153.724 57.3385C153.724 57.7025 153.425 58.0015 153.074 58.0015ZM158.031 66.2305C156.289 66.2305 154.768 65.1255 154.768 62.7335C154.768 60.3285 156.289 59.2105 158.031 59.2105C159.24 59.2105 160.657 59.7435 160.904 61.6415H159.955C159.76 60.5105 158.902 60.0945 158.018 60.0945C156.705 60.0945 155.756 61.0175 155.756 62.7335C155.756 64.4495 156.705 65.3335 158.018 65.3335C158.915 65.3335 159.76 64.9305 159.955 63.7605H160.904C160.67 65.6845 159.24 66.2305 158.031 66.2305ZM164.872 66.2305C163.013 66.2305 161.661 65.1125 161.661 62.7335C161.661 60.2765 163.091 59.2105 164.82 59.2105C166.562 59.2105 167.836 60.3025 167.836 62.5645C167.836 62.7855 167.823 62.9155 167.797 63.0455H162.662C162.74 64.6315 163.52 65.3985 164.885 65.3985C165.717 65.3985 166.471 65.1255 166.796 64.2025H167.745C167.303 65.6975 166.159 66.2305 164.872 66.2305ZM162.662 62.2525H166.835C166.822 60.8355 166.055 60.0295 164.807 60.0295C163.624 60.0295 162.766 60.7445 162.662 62.2525ZM172.003 66.1005V57.0005H175.318C177.45 57.0005 178.529 58.0665 178.529 59.8085C178.529 61.1865 177.827 62.1485 176.449 62.4605L178.594 66.1005H177.515L175.448 62.5905H173.069V66.1005H172.003ZM175.279 61.6415C176.709 61.6415 177.437 60.9915 177.437 59.8085C177.437 58.5995 176.709 57.9495 175.279 57.9495H173.069V61.6415H175.279ZM181.671 66.2305C180.384 66.2305 179.448 65.6455 179.448 64.3715C179.448 63.1755 180.267 62.5905 181.58 62.4345L183.309 62.2395C184.011 62.1615 184.219 62.0185 184.219 61.7975V61.5245C184.219 60.3805 183.647 60.0165 182.529 60.0165C181.411 60.0165 180.839 60.3805 180.839 61.2775V61.4335H179.838V61.1865C179.838 59.8345 180.8 59.2105 182.568 59.2105C184.401 59.2105 185.259 59.8995 185.259 61.5245V66.1005H184.284V64.9305H184.232C184.076 65.2685 183.335 66.2305 181.671 66.2305ZM181.918 65.3985C183.491 65.3985 184.219 64.3585 184.219 63.6825V62.7075C184.167 62.8505 183.946 62.9675 183.244 63.0585L181.827 63.2275C180.826 63.3445 180.488 63.7215 180.488 64.3195C180.488 65.0995 181.073 65.3985 181.918 65.3985ZM188.943 66.1915C187.929 66.1915 187.214 65.7625 187.214 64.5145V60.1855H186.122V59.3405H187.214V57.6505H188.254V59.3405H189.593V60.1855H188.254V64.3195C188.254 65.0475 188.501 65.3335 189.229 65.3335C189.398 65.3335 189.515 65.3335 189.697 65.3075V66.1005C189.463 66.1525 189.216 66.1915 188.943 66.1915ZM190.805 66.1005V59.3405H191.845V66.1005H190.805ZM191.325 58.0015C190.974 58.0015 190.662 57.7025 190.662 57.3385C190.662 56.9745 190.974 56.6885 191.325 56.6885C191.676 56.6885 191.975 56.9745 191.975 57.3385C191.975 57.7025 191.676 58.0015 191.325 58.0015ZM198.115 62.1355C198.115 60.8485 197.569 60.0945 196.373 60.0945C195.177 60.0945 194.384 60.8485 194.384 62.1355V66.1005H193.344V59.3405H194.384V60.6665H194.41C194.527 60.2115 195.177 59.2105 196.737 59.2105C198.076 59.2105 199.155 59.9385 199.155 61.9275V66.1005H198.115V62.1355ZM203.503 68.8175C202.099 68.8175 200.565 68.2845 200.552 66.6985H201.475C201.514 67.5175 202.385 67.9855 203.49 67.9855C204.725 67.9855 205.713 67.4265 205.713 65.9965V64.7485H205.687C205.219 65.5415 204.283 65.9575 203.321 65.9575C201.787 65.9575 200.344 64.9435 200.344 62.5775C200.344 60.2115 201.8 59.2105 203.321 59.2105C204.283 59.2105 205.219 59.6265 205.687 60.4195H205.713V59.3405H206.753V65.9965C206.753 68.2455 204.959 68.8175 203.503 68.8175ZM203.529 65.0735C204.673 65.0735 205.765 64.2805 205.765 62.5775C205.765 60.8745 204.673 60.0815 203.529 60.0815C202.385 60.0815 201.332 60.8745 201.332 62.5775C201.332 64.2805 202.385 65.0735 203.529 65.0735Z" fill="#7E7E7E"/>
</g>
<defs>
<clipPath id="clip0_133_143">
<rect width="300" height="99" fill="white"/>
</clipPath>
</defs>
</svg>
